# xmcd
#
# Track frame offsets: 
#        210
#        21021
#        40678
#        63121
#        82454
#        105390
#        127399
#        157186
#        172980
#        193910
#        215185
#
# Disc length: 3101 seconds
#
# Revision: 1
# Processed by: cddbd v1.5.2PL0 Copyright (c) Steve Scherf et al.
# Submitted via: ExactAudioCopy v0.95b4
#
DISCID=a10c1b0b
DTITLE=Oscar Klein and Heini Altbart - Timeless Standards
DYEAR=2000
DGENRE=Jazz
TTITLE0=I Can't Give You Anything But Love
TTITLE1=There'll Never Be Another You
TTITLE2=Moonglow
TTITLE3=Daytrain
TTITLE4=Exactly Like You
TTITLE5=These Foolish Things
TTITLE6=If Don't Mean A Thing (If It Ain't Got That Swing)
TTITLE7=Guitar Blues
TTITLE8=Oh, Lady Be Good
TTITLE9=Mood Indigo
TTITLE10=Lester Leaps In
EXTD=YEAR: 2002
EXTT0=
EXTT1=
EXTT2=
EXTT3=
EXTT4=
EXTT5=
EXTT6=
EXTT7=
EXTT8=
EXTT9=
EXTT10=
PLAYORDER=
